# xmcd
#
# Track frame offsets: 
#        150
#        15773
#        46437
#        61452
#        87482
#        104031
#        114798
#        128096
#        143010
#        164816
#        179942
#        218805
#        243574
#        264835
#        299191
#        335821
#
# Disc length: 4752 seconds
#
# Revision: 0
# Processed by: cddbd v1.5.2PL0 Copyright (c) Steve Scherf et al.
# Submitted via: ExactAudioCopy v0.99pb4
#
DISCID=fc128e10
DTITLE=ZIEBOLZ, Burkhard - Riesen and Zwerge (Krimi-7 CD-107 Tracks)
DYEAR=2006
DGENRE=Hörbuch
TTITLE0=092 Riesen and Zwerge-CD 7-01
TTITLE1=093 Riesen and Zwerge-CD 7-02
TTITLE2=094 Riesen and Zwerge-CD 7-03
TTITLE3=095 Riesen and Zwerge-CD 7-04
TTITLE4=096 Riesen and Zwerge-CD 7-05
TTITLE5=097 Riesen and Zwerge-CD 7-06
TTITLE6=098 Riesen and Zwerge-CD 7-07
TTITLE7=099 Riesen and Zwerge-CD 7-08
TTITLE8=100 Riesen and Zwerge-CD 7-09
TTITLE9=101 Riesen and Zwerge-CD 7-10
TTITLE10=102 Riesen and Zwerge-CD 7-11
TTITLE11=103 Riesen and Zwerge-CD 7-12
TTITLE12=104 Riesen and Zwerge-CD 7-13
TTITLE13=105 Riesen and Zwerge-CD 7-14
TTITLE14=106 Riesen and Zwerge-CD 7-15
TTITLE15=107 Riesen and Zwerge-CD 7-16
EXTD=
EXTT0=
EXTT1=
EXTT2=
EXTT3=
EXTT4=
EXTT5=
EXTT6=
EXTT7=
EXTT8=
EXTT9=
EXTT10=
EXTT11=
EXTT12=
EXTT13=
EXTT14=
EXTT15=
PLAYORDER=
